<?xml version="1.0" encoding="iso-8859-1"?>
<!-- Uploaded to: SVG Repo, www.svgrepo.com, Generator: SVG Repo Mixer Tools -->
<!DOCTYPE svg PUBLIC "-//W3C//DTD SVG 1.1//EN" "http://www.w3.org/Graphics/SVG/1.1/DTD/svg11.dtd">
<svg fill="black" height="800px" width="800px" version="1.1" id="Capa_1" xmlns="http://www.w3.org/2000/svg"
	xmlns:xlink="http://www.w3.org/1999/xlink" viewBox="0 0 297 297" xml:space="preserve">
	<g>
		<path d="M148.5,69.022H44.969c-5.775,0-10.458,4.683-10.458,10.458c0,5.774,4.683,10.457,10.458,10.457H148.5
		c5.775,0,10.458-4.683,10.458-10.457C158.958,73.704,154.275,69.022,148.5,69.022z" />
		<path d="M148.5,103.532H44.969c-5.775,0-10.458,4.682-10.458,10.457c0,5.775,4.683,10.458,10.458,10.458H148.5
		c5.775,0,10.458-4.683,10.458-10.458C158.958,108.214,154.275,103.532,148.5,103.532z" />
		<path d="M148.5,138.041H44.969c-5.775,0-10.458,4.683-10.458,10.458c0,5.775,4.683,10.458,10.458,10.458H148.5
		c5.775,0,10.458-4.683,10.458-10.458C158.958,142.724,154.275,138.041,148.5,138.041z" />
		<path
			d="M270.855,17.255H26.144C11.728,17.255,0,28.983,0,43.399v175.69c0,14.416,11.728,26.145,26.144,26.145h155.036v24.054
		c0,3.857,2.123,7.4,5.522,9.22c3.401,1.823,7.529,1.62,10.735-0.518l20.083-13.388l20.082,13.388
		c1.749,1.167,3.773,1.757,5.802,1.757c1.691,0,3.388-0.41,4.934-1.238c3.399-1.819,5.522-5.363,5.522-9.22v-24.054h16.994
		c14.416,0,26.145-11.729,26.145-26.145V43.399C297,28.983,285.271,17.255,270.855,17.255z M217.521,193.59
		c-15.281,0-27.714-12.487-27.714-27.835c0-15.347,12.433-27.834,27.714-27.834c15.281,0,27.713,12.487,27.713,27.834
		C245.234,181.103,232.803,193.59,217.521,193.59z M223.322,243.329c-1.757-1.171-3.779-1.756-5.801-1.756
		c-2.022,0-4.045,0.585-5.801,1.756l-9.625,6.416v-37.769c4.851,1.632,10.034,2.528,15.426,2.528c5.391,0,10.575-0.896,15.425-2.528
		v37.769L223.322,243.329z M276.085,219.088c0,2.834-2.396,5.229-5.23,5.229h-16.994V198.1c7.637-8.612,12.288-19.94,12.288-32.345
		c0-26.88-21.814-48.75-48.628-48.75c-26.814,0-48.629,21.87-48.629,48.75c0,12.404,4.651,23.732,12.288,32.345v26.217H26.144
		c-2.834,0-5.229-2.395-5.229-5.229V43.399c0-2.834,2.395-5.229,5.229-5.229h244.711c2.834,0,5.23,2.395,5.23,5.229V219.088z" />
	</g>
</svg>