<?xml version="1.0" encoding="utf-8"?>
<!-- Uploaded to: SVG Repo, www.svgrepo.com, Generator: SVG Repo Mixer Tools -->
<svg fill="#000000" width="800px" height="800px" viewBox="0 0 32 32" version="1.1" xmlns="http://www.w3.org/2000/svg">
<title>briefcase</title>
<path d="M28 7.75h-3.75v-2.75c-0.002-1.794-1.456-3.248-3.25-3.25h-10c-1.794 0.002-3.248 1.456-3.25 3.25v2.75h-3.75c-1.794 0.002-3.248 1.456-3.25 3.25v16c0.002 1.794 1.456 3.248 3.25 3.25h24c1.794-0.001 3.249-1.456 3.25-3.25v-16c-0.002-1.794-1.456-3.248-3.25-3.25h-0zM10.25 5c0.006-0.412 0.338-0.744 0.749-0.75h10.001c0.412 0.006 0.744 0.338 0.75 0.749v2.751h-11.5zM4 10.25h24c0.412 0.006 0.744 0.338 0.75 0.749v3.751h-25.5v-3.75c0.006-0.412 0.338-0.744 0.749-0.75h0.001zM14.25 17.25h3.5v0.25c-0.004 0.137-0.113 0.246-0.25 0.25h-3c-0.137-0.002-0.248-0.113-0.25-0.25v-0zM28 27.75h-24c-0.412-0.006-0.744-0.338-0.75-0.749v-9.751h8.5v0.25c0.002 1.518 1.232 2.748 2.75 2.75h3c1.518-0.002 2.748-1.232 2.75-2.75v-0.25h8.5v9.75c-0.006 0.412-0.338 0.744-0.749 0.75h-0.001z"></path>
</svg>