<?xml version="1.0" encoding="iso-8859-1"?>
<!-- Uploaded to: SVG Repo, www.svgrepo.com, Generator: SVG Repo Mixer Tools -->
<svg version="1.1" id="Layer_1" xmlns="http://www.w3.org/2000/svg" xmlns:xlink="http://www.w3.org/1999/xlink" 
	 viewBox="0 0 512 512" xml:space="preserve">
<polygon style="fill:#FF9933;" points="0,227.63 82.424,206.732 61.526,478.24 0,478.24 "/>
<g>
	<polygon style="fill:#D5681E;" points="143.948,206.732 123.05,478.24 61.526,478.24 61.526,227.63 	"/>
	<polygon style="fill:#D5681E;" points="512,227.63 429.576,206.732 450.474,478.24 512,478.24 	"/>
</g>
<polygon style="fill:#FF9933;" points="368.052,206.732 388.95,478.24 450.474,478.24 450.474,227.63 "/>
<polygon style="fill:#663300;" points="271.673,141.395 271.673,71.629 256,90.562 235.102,227.63 512,227.63 512,141.395 "/>
<polygon style="fill:#983300;" points="240.327,109.497 240.327,141.395 0,141.395 0,227.63 256,227.63 256,90.562 "/>
<polygon style="fill:#FF0F4D;" points="240.327,109.497 342.804,71.629 271.673,61.18 240.327,71.629 "/>
<polygon style="fill:#FF4F67;" points="240.327,71.629 342.804,71.629 240.327,33.76 "/>
<polygon style="fill:#D5681E;" points="388.95,227.63 256,141.395 235.102,322.081 256,478.24 388.95,478.24 "/>
<polygon style="fill:#FF9933;" points="123.05,227.63 123.05,478.24 256,478.24 256,141.395 "/>
<g>
	<rect x="45.852" y="337.032" style="fill:#FDE09C;" width="31.347" height="31.8"/>
	<rect x="45.852" y="283.679" style="fill:#FDE09C;" width="31.347" height="31.8"/>
	<rect x="45.852" y="390.395" style="fill:#FDE09C;" width="31.347" height="31.799"/>
	<rect x="434.803" y="337.032" style="fill:#FDE09C;" width="31.347" height="31.8"/>
	<rect x="434.803" y="283.679" style="fill:#FDE09C;" width="31.347" height="31.8"/>
	<rect x="434.803" y="390.395" style="fill:#FDE09C;" width="31.347" height="31.799"/>
</g>
<path style="fill:#663300;" d="M284.147,363.572c0-15.545-12.601-28.147-28.147-28.147l-20.898,74.897L256,478.24h28.147V363.572z"
	/>
<path style="fill:#983300;" d="M227.853,363.572V478.24H256V335.425C240.455,335.425,227.853,348.027,227.853,363.572z"/>
<path style="fill:#663300;" d="M364.695,363.572c0-15.545-12.601-28.147-28.147-28.147l-20.898,74.897l20.898,67.918h28.147V363.572
	z"/>
<path style="fill:#983300;" d="M308.402,363.572V478.24h28.147V335.425C321.003,335.425,308.402,348.027,308.402,363.572z"/>
<path style="fill:#663300;" d="M203.598,363.572c0-15.545-12.601-28.147-28.147-28.147l-20.898,74.897l20.898,67.918h28.147V363.572
	z"/>
<path style="fill:#983300;" d="M147.304,363.572V478.24h28.147V335.425C159.906,335.425,147.304,348.027,147.304,363.572z"/>
<path style="fill:#FFBA00;" d="M256,209.872l-20.898,42.552L256,293.102c22.984,0,41.615-18.632,41.615-41.615
	S278.984,209.872,256,209.872z"/>
<path style="fill:#FDE09C;" d="M214.385,251.487c0,22.984,18.632,41.615,41.615,41.615v-83.23
	C233.016,209.872,214.385,228.503,214.385,251.487z"/>
</svg>