<?xml version="1.0" ?>

<!-- Uploaded to: SVG Repo, www.svgrepo.com, Generator: SVG Repo Mixer Tools -->
<svg width="800px" height="800px" viewBox="0 0 8.4666669 8.4666669" id="svg8" version="1.1"
    xmlns="http://www.w3.org/2000/svg" xmlns:cc="http://creativecommons.org/ns#"
    xmlns:dc="http://purl.org/dc/elements/1.1/" xmlns:inkscape="http://www.inkscape.org/namespaces/inkscape"
    xmlns:rdf="http://www.w3.org/1999/02/22-rdf-syntax-ns#"
    xmlns:sodipodi="http://sodipodi.sourceforge.net/DTD/sodipodi-0.dtd" xmlns:svg="http://www.w3.org/2000/svg">

    <defs id="defs2" />

    <g id="layer1" transform="translate(0,-288.53332)">

        <path
            d="m 4.2324219,288.79688 c -1.6042437,0 -2.9101556,1.30591 -2.9101563,2.91015 -10e-7,2.82277 2.7460938,4.96875 2.7460938,4.96875 a 0.26460978,0.26460978 0 0 0 0.3300781,0 c 0,0 2.7460996,-2.14598 2.7460937,-4.96875 -3.4e-6,-1.60424 -1.3078657,-2.91015 -2.9121093,-2.91015 z m 0,0.52929 c 1.3182605,0 2.3828097,1.0626 2.3828125,2.38086 4.8e-6,2.30926 -2.0910618,4.13374 -2.3808594,4.38086 -0.2884142,-0.24588 -2.3828134,-2.0707 -2.3828125,-4.38086 5e-7,-1.31826 1.0625988,-2.38086 2.3808594,-2.38086 z"
            id="path929"
            style="color:white;font-style:normal;font-variant:normal;font-weight:normal;font-stretch:normal;font-size:medium;line-height:normal;font-family:sans-serif;font-variant-ligatures:normal;font-variant-position:normal;font-variant-caps:normal;font-variant-numeric:normal;font-variant-alternates:normal;font-feature-settings:normal;text-indent:0;text-align:start;text-decoration:none;text-decoration-line:none;text-decoration-style:solid;text-decoration-color:white;letter-spacing:normal;word-spacing:normal;text-transform:none;writing-mode:lr-tb;direction:ltr;text-orientation:mixed;dominant-baseline:auto;baseline-shift:baseline;text-anchor:start;white-space:normal;shape-padding:0;clip-rule:nonzero;display:inline;overflow:visible;visibility:visible;opacity:1;isolation:auto;mix-blend-mode:normal;color-interpolation:sRGB;color-interpolation-filters:linearRGB;solid-color:white;solid-opacity:1;vector-effect:none;fill:white;fill-opacity:1;fill-rule:nonzero;stroke:none;stroke-width:0.52916664;stroke-linecap:round;stroke-linejoin:round;stroke-miterlimit:4;stroke-dasharray:none;stroke-dashoffset:0;stroke-opacity:1;paint-order:stroke fill markers;color-rendering:auto;image-rendering:auto;shape-rendering:auto;text-rendering:auto;enable-background:accumulate" />

        <path
            d="m 4.2324219,290.38477 c -0.7274912,0 -1.3222633,0.59477 -1.3222657,1.32226 -4.5e-6,0.7275 0.5947697,1.32422 1.3222657,1.32422 0.727496,0 1.3242233,-0.59672 1.3242187,-1.32422 -2.3e-6,-0.72749 -0.5967275,-1.32226 -1.3242187,-1.32226 z m 0,0.52929 c 0.4415089,0 0.7949204,0.35146 0.7949219,0.79297 2.7e-6,0.44151 -0.35341,0.79492 -0.7949219,0.79492 -0.441512,0 -0.7929715,-0.35341 -0.7929688,-0.79492 1.4e-6,-0.44151 0.3514598,-0.79297 0.7929688,-0.79297 z"
            id="circle931"
            style="color:white;font-style:normal;font-variant:normal;font-weight:normal;font-stretch:normal;font-size:medium;line-height:normal;font-family:sans-serif;font-variant-ligatures:normal;font-variant-position:normal;font-variant-caps:normal;font-variant-numeric:normal;font-variant-alternates:normal;font-feature-settings:normal;text-indent:0;text-align:start;text-decoration:none;text-decoration-line:none;text-decoration-style:solid;text-decoration-color:white;letter-spacing:normal;word-spacing:normal;text-transform:none;writing-mode:lr-tb;direction:ltr;text-orientation:mixed;dominant-baseline:auto;baseline-shift:baseline;text-anchor:start;white-space:normal;shape-padding:0;clip-rule:nonzero;display:inline;overflow:visible;visibility:visible;opacity:1;isolation:auto;mix-blend-mode:normal;color-interpolation:sRGB;color-interpolation-filters:linearRGB;solid-color:white;solid-opacity:1;vector-effect:none;fill:white;fill-opacity:1;fill-rule:nonzero;stroke:none;stroke-width:0.52916664;stroke-linecap:round;stroke-linejoin:round;stroke-miterlimit:4;stroke-dasharray:none;stroke-dashoffset:0;stroke-opacity:1;paint-order:stroke fill markers;color-rendering:auto;image-rendering:auto;shape-rendering:auto;text-rendering:auto;enable-background:accumulate" />

    </g>

</svg>